<?xml version="1.0" encoding="UTF-8"?>
<svg width="15px" height="15px" viewBox="0 0 15 15" version="1.1" xmlns="http://www.w3.org/2000/svg" xmlns:xlink="http://www.w3.org/1999/xlink">
    <g  stroke="none" stroke-width="1" fill="none" fill-rule="evenodd">
        <g  transform="translate(-936.000000, -69.000000)">
            <g  transform="translate(0.000000, 47.000000)" >
                <g transform="translate(895.000000, 20.000000)">
                    <g  transform="translate(41.000000, 2.000000)"   class="logopath" fill-rule="nonzero">
                        <path d="M15,7.54562818 C15,3.37860781 11.6418225,0 7.5,0 C3.35817747,0 0,3.37860781 0,7.54562818 C0,11.311545 2.74223035,14.4333616 6.32822388,15 L6.32822388,9.72729202 L4.42342849,9.72729202 L4.42342849,7.54562818 L6.32822388,7.54562818 L6.32822388,5.88285229 C6.32822388,3.99193548 7.4483195,2.94673175 9.16115877,2.94673175 C9.98171846,2.94673175 10.8402475,3.0942275 10.8402475,3.0942275 L10.8402475,4.95118846 L9.89417803,4.95118846 C8.96287442,4.95118846 8.67177612,5.53268251 8.67177612,6.13009338 L8.67177612,7.54562818 L10.7516524,7.54562818 L10.4194206,9.72729202 L8.67177612,9.72729202 L8.67177612,15 C12.2577697,14.4344228 15,11.3126061 15,7.54562818 Z" id="facebook_logo" ></path>
                    </g>
                </g>
            </g>
        </g>
    </g>
</svg>