<?xml version="1.0" encoding="UTF-8"?>
<svg width="17px" height="17px" viewBox="0 0 17 17" version="1.1" xmlns="http://www.w3.org/2000/svg" xmlns:xlink="http://www.w3.org/1999/xlink">
    <title>instagram_logo</title>

    <g  stroke="none" stroke-width="1" fill="none" fill-rule="evenodd">
        <g  transform="translate(-905.000000, -69.000000)">
            <g transform="translate(0.000000, 47.000000)" >
                <g transform="translate(895.000000, 20.000000)" id="Instagram_logo_2016" class="logopath" fill-rule="nonzero">
                    <path d="M21.588208,2.92307692 C21.6681545,2.92320974 21.7448996,2.92336366 21.8185984,2.92354046 L22.2254764,2.92488975 C23.2196207,2.92929476 23.5133293,2.94045528 23.741949,2.96557717 L23.8258712,2.97566639 C23.8675477,2.98105229 23.909728,2.98696069 23.9566001,2.99343909 C24.730507,3.10016291 25.3799566,3.39530623 25.9109989,3.88028573 C26.2085605,4.15406067 26.4135198,4.42181469 26.5981068,4.78035479 C26.8230682,5.21834747 26.9335734,5.63272869 26.9841959,6.24898793 C26.9918419,6.3420346 26.996553,7.41162815 26.9986736,8.7710626 L26.9994856,9.43397991 C26.9995546,9.50944534 26.9996166,9.58541329 26.9996716,9.66178366 L26.999519,11.7484817 C26.9994542,11.8239819 26.9993826,11.8989834 26.9993042,11.9733856 L26.9987518,12.4118029 C26.998646,12.4834057 26.9985331,12.5542082 26.9984132,12.6241098 L26.9976083,13.0319044 C26.9952325,14.0862386 26.991005,14.8584715 26.9845663,14.9368266 C26.9345612,15.5432871 26.824056,15.96121 26.6061323,16.3909387 C26.1727543,17.2456737 25.376376,17.8690164 24.4145485,18.1063117 C24.0657472,18.1924935 23.7502826,18.2329872 23.2070167,18.257425 C23.1026375,18.2625106 22.4666454,18.2655424 21.5852934,18.2672576 L21.1933836,18.2679142 C21.1258399,18.268011 21.0572529,18.2681015 20.987727,18.2681861 L19.6573961,18.2691292 C19.5803592,18.2691526 19.5030094,18.2691717 19.4254509,18.2691867 L18.7246132,18.2692048 C18.646745,18.2691875 18.5689825,18.2691617 18.4914297,18.2691276 L17.5775069,18.2683312 C17.5032934,18.2682337 17.4297051,18.2681287 17.356846,18.2680163 L16.9292716,18.2672558 C15.7473106,18.2648613 14.8361166,18.2604673 14.7061412,18.2550639 C14.2369571,18.2338136 13.8714873,18.1889518 13.540589,18.1074922 C12.5849351,17.8713776 11.7737404,17.2385903 11.3490053,16.395661 C11.1267602,15.9553072 11.0218111,15.5527317 10.9662498,14.912861 C10.9558943,14.7955653 10.950678,14.3642691 10.94828,13.2131763 L10.9476428,12.8458487 C10.9475499,12.7808932 10.9474635,12.7140368 10.9473833,12.6452287 L10.9469634,7.87905176 C10.9510888,6.25939255 10.9677726,6.17783872 11.0198356,5.83389837 C11.1315755,5.09462339 11.4402493,4.47269739 11.949561,3.96717592 C12.2292194,3.68997732 12.5125819,3.4922313 12.8718782,3.32163846 C13.338099,3.09969068 13.7660444,2.99615441 14.4537695,2.94149387 C14.5549798,2.93346597 14.8790326,2.92876996 15.66305,2.9261314 L15.959247,2.92528349 C16.011925,2.92515572 16.0662911,2.92503455 16.1223936,2.92491972 L18.094282,2.92317109 C18.1855484,2.92314938 18.2789856,2.92313169 18.3746418,2.92311774 Z M19.6262844,5.11592488 L18.319079,5.11592488 C17.6285314,5.11731091 17.3069078,5.12159753 17.0029293,5.13142147 L16.8367614,5.13734498 C16.7524411,5.14059717 16.6646826,5.14429687 16.5663601,5.1484976 C15.9448671,5.17521635 15.5206465,5.26759014 15.1494534,5.403125 C14.76549,5.54311298 14.4397839,5.7303726 14.115294,6.0351262 C13.7905609,6.33976562 13.5910993,6.64554687 13.4415032,7.00590745 C13.296772,7.35450721 13.1982574,7.75289062 13.1702841,8.33613582 C13.1656422,8.43357171 13.1615712,8.51996044 13.1580098,8.60316896 L13.1515482,8.76767669 C13.140881,9.07004723 13.1365146,9.40017316 13.1354236,10.1458673 L13.1354158,11.0464169 C13.136964,12.1309426 13.1453244,12.3358287 13.1704058,12.8554868 C13.1989872,13.4389603 13.2973801,13.8372296 13.4416248,14.1857151 C13.5908561,14.5461899 13.7903176,14.8519712 14.1149291,15.1566106 C14.4392974,15.4614784 14.7650035,15.6491947 15.1487237,15.7891827 C15.52016,15.9247175 15.9445022,16.0170913 16.5658736,16.0438101 C17.0902603,16.0662139 17.3140733,16.0743668 18.3184064,16.0763828 L19.6272401,16.0763828 C20.3177441,16.0749968 20.6391501,16.0707102 20.942997,16.0608862 L21.1091031,16.0549627 C21.1933984,16.0517105 21.2811418,16.0480108 21.3794643,16.0438101 C22.0009572,16.0170913 22.4256643,15.9247175 22.7971006,15.7891827 C23.1809425,15.6491947 23.5061621,15.4614784 23.8305303,15.1566106 C24.1552634,14.8519712 24.354725,14.5461899 24.5043211,14.1858293 C24.6478361,13.8372296 24.7463507,13.4388462 24.7755402,12.855601 C24.7802024,12.7581651 24.7842903,12.6717922 24.7878658,12.5886101 L24.7943519,12.4241678 C24.8050579,12.1219372 24.8094302,11.792046 24.8105222,11.0464208 L24.8105222,10.1458712 C24.8094302,9.40019086 24.8050579,9.07011187 24.7943519,8.76776934 L24.7878658,8.60327468 C24.7842903,8.52007145 24.7802024,8.4336859 24.7755402,8.33625 C24.7463507,7.75277644 24.6478361,7.35450721 24.5043211,7.00602163 C24.354725,6.64554687 24.1552634,6.33976562 23.8305303,6.0351262 C23.5057972,5.73025841 23.1810641,5.5429988 22.7967358,5.403125 C22.4245697,5.26759014 22.0001059,5.17521635 21.3786129,5.1484976 C21.2802904,5.14429687 21.1925501,5.14059717 21.1082585,5.13734498 L20.8585961,5.12887752 C20.5768367,5.12084211 20.2541344,5.1171849 19.6262844,5.11592488 Z M18.4498121,6.10169471 L18.4498121,6.1030649 L18.9735203,6.1030649 C19.137596,6.1030649 19.2864475,6.1031231 19.42218,6.10325788 L19.7921252,6.10391031 C20.6291198,6.10620762 20.8465704,6.11384615 21.3325178,6.13457933 C21.9017129,6.15901442 22.2106351,6.24830529 22.416421,6.32332332 C22.6888563,6.42266226 22.883088,6.54141226 23.0872929,6.73323918 C23.2916193,6.92506611 23.4181071,7.10775841 23.5241623,7.36352764 C23.6040685,7.55649639 23.6992992,7.84652043 23.7252049,8.38089543 C23.748516,8.86236579 23.7566242,9.06313702 23.7586794,9.96314509 L23.7586794,11.2266506 C23.7566242,12.1266587 23.748516,12.3274299 23.7252049,12.8089002 C23.6991776,13.3432752 23.6040685,13.6332993 23.5241623,13.826268 C23.4183504,14.0820373 23.2916193,14.2641587 23.0872929,14.4558714 C22.8829664,14.6476983 22.6889779,14.7664483 22.416421,14.8657873 C22.2108783,14.9411478 21.9017129,15.0302103 21.3325178,15.0546454 C20.8790565,15.0739964 20.6593537,15.0821884 19.9515453,15.08516 L19.6162102,15.0861312 C19.5546389,15.0862455 19.490051,15.0863376 19.4221837,15.0864095 L18.5248262,15.0864095 C18.4569549,15.0863376 18.3923637,15.0862455 18.3307895,15.0861312 L17.9954432,15.08516 C17.2876209,15.0821884 17.0679841,15.0739964 16.6145227,15.0546454 C16.0453276,15.029982 15.7364055,14.9406911 15.5304979,14.8656731 C15.2580627,14.7663341 15.063466,14.6475841 14.8591396,14.4557572 C14.6548131,14.2639303 14.5283253,14.0816947 14.4222702,13.8258113 C14.3423639,13.6328425 14.2471332,13.3428185 14.2212275,12.8084435 C14.1979165,12.3269732 14.1901461,12.1262019 14.1882035,11.2256652 L14.1882035,9.96145772 C14.1901461,9.06113248 14.1979165,8.86099559 14.2212275,8.37952524 C14.2472548,7.84515024 14.3423639,7.5551262 14.4222702,7.36192909 C14.5280821,7.10615986 14.6548131,6.92346755 14.8591396,6.73164062 C15.063466,6.5398137 15.2580627,6.4210637 15.5304979,6.32149639 C15.7362839,6.24613582 16.0453276,6.15707332 16.6145227,6.13252404 C16.722232,6.12795673 16.8167475,6.12402885 16.9077429,6.12065817 L17.087906,6.11463542 C17.3899092,6.10575454 17.7244532,6.10245593 18.4498121,6.10169471 Z M18.9734947,7.78114122 C17.3178679,7.78155048 15.9755161,9.04178486 15.9755161,10.5961538 C15.9755161,12.1505228 17.3178679,13.4101863 18.9735203,13.4101863 C20.6291727,13.4101863 21.971038,12.1505228 21.971038,10.5961538 C21.971038,9.09729803 20.7231955,7.87194239 19.1495429,7.7863288 L18.9734947,7.78114122 Z M18.9735203,8.76923077 C20.0481801,8.76923077 20.9194865,9.58712139 20.9194865,10.5961538 C20.9194865,11.6050721 20.0481801,12.4230769 18.9735203,12.4230769 C17.8987388,12.4230769 17.0275541,11.6050721 17.0275541,10.5961538 C17.0275541,9.58712139 17.8987388,8.76923077 18.9735203,8.76923077 Z M22.0897419,7.0128726 C21.7029811,7.01310096 21.3891941,7.30734976 21.3891941,7.6705649 C21.3891941,8.03366587 21.7029811,8.32825721 22.0897419,8.32825721 C22.4765027,8.32825721 22.7902898,8.03366587 22.7902898,7.6705649 C22.7902898,7.30746394 22.4765027,7.0128726 22.0897419,7.0128726 Z" id="instagram_logo"></path>
                </g>
            </g>
        </g>
    </g>
</svg>