<?xml version="1.0" encoding="UTF-8"?>
<svg width="19px" height="16px" viewBox="0 0 19 16" version="1.1" xmlns="http://www.w3.org/2000/svg" xmlns:xlink="http://www.w3.org/1999/xlink">
    <title>twitter_logo</title>

    <g  stroke="none" stroke-width="1" fill="none" fill-rule="evenodd">
        <g  transform="translate(-965.000000, -69.000000)">
            <g  transform="translate(0.000000, 47.000000)" >
                <g transform="translate(895.000000, 20.000000)" class="logopath">
                    <path d="M75.9752711,18 C83.145441,18 87.0665279,11.8449774 87.0665279,6.50755913 C87.0665279,6.33273477 87.0630914,6.15870317 87.0555234,5.98545773 C87.8166606,5.4153148 88.4782085,4.70382199 89,3.89388106 C88.3015365,4.21557163 87.5498991,4.43212843 86.76141,4.52977718 C87.5662211,4.02972123 88.1840951,3.23869433 88.4755945,2.29570111 C87.722427,2.75835179 86.8883512,3.09460941 86.0002728,3.27615245 C85.2889303,2.49105147 84.2762059,2 83.1548388,2 C81.0021302,2 79.2564495,3.80889011 79.2564495,6.03860597 C79.2564495,6.35556638 79.290649,6.66387245 79.3575307,6.95959998 C76.1176927,6.79068172 73.2448429,5.18341141 71.3221714,2.73945097 C70.9873935,3.3363629 70.7943548,4.02974105 70.7943548,4.7695884 C70.7943548,6.17093156 71.4825534,7.40804036 72.5290692,8.13176817 C71.8895176,8.11129371 71.2887306,7.92938204 70.7636237,7.62659229 C70.7630499,7.64353895 70.7630499,7.66006082 70.7630499,7.67817284 C70.7630499,9.63431893 72.1067395,11.2675457 73.8904196,11.6376345 C73.562859,11.7301633 73.2182242,11.7797772 72.862521,11.7797772 C72.6117245,11.7797772 72.3673802,11.7541999 72.1298834,11.7069353 C72.6261592,13.3118207 74.0652427,14.4796948 75.7713937,14.5123303 C74.4372041,15.595907 72.7564923,16.2412833 70.9298396,16.2412833 C70.6155788,16.2412833 70.3051243,16.2227617 70,16.1853709 C71.7252145,17.3311797 73.7737434,17.9997443 75.9754815,17.9997443" id="twitter_logo"  fill-rule="nonzero"></path>
                </g>
            </g>
        </g>
    </g>
</svg>